HIERARCHY
ROOT hip
{
  OFFSET 0.00112043 5.09927 -9.65472
  CHANNELS 6 Xposition Yposition Zposition Zrotation Xrotation Yrotation
  JOINT abdomen
  {
    OFFSET 0 -1.186 -1.5018
    CHANNELS 3 Zrotation Xrotation Yrotation
    JOINT abdomen2
    {
      OFFSET 0 9.964 0.2134
      CHANNELS 3 Zrotation Xrotation Yrotation
      JOINT chest
      {
        OFFSET 0 13.134 -3.2573
        CHANNELS 3 Zrotation Xrotation Yrotation
        JOINT neck
        {
          OFFSET 0 20.686 -1.6905
          CHANNELS 3 Zrotation Xrotation Yrotation
          JOINT head
          {
            OFFSET 0 7.238 -0.1237
            CHANNELS 3 Zrotation Xrotation Yrotation
            End Site
            {
              OFFSET 0 0 0
            }
          }
        }
        JOINT lCollar
        {
          OFFSET 1.7069 20.075 5.0056
          CHANNELS 3 Zrotation Xrotation Yrotation
          JOINT lShldr
          {
            OFFSET 13.6458 -0.047 -4.849
            CHANNELS 3 Zrotation Xrotation Yrotation
            JOINT lForeArm
            {
              OFFSET 28.3255 -0.9759 2.2888
              CHANNELS 3 Zrotation Xrotation Yrotation
              JOINT lHand
              {
                OFFSET 22.1583 -0.53 10.8316
                CHANNELS 3 Zrotation Xrotation Yrotation
                JOINT lThumb1
                {
                  OFFSET 0.786 0.112 2.5817
                  CHANNELS 3 Zrotation Xrotation Yrotation
                  JOINT lThumb2
                  {
                    OFFSET 0.3601 -0.878 4.2331
                    CHANNELS 3 Zrotation Xrotation Yrotation
                    JOINT lThumb2_End
                    {
                      OFFSET 1.8127 -1.216 2.2227
                      CHANNELS 3 Zrotation Xrotation Yrotation
                      End Site
                      {
                        OFFSET 0.0181 -0.0122 0.0222
                      }
                    }
                  }
                }
                JOINT lCarpal1
                {
                  OFFSET 0.9571 1.114 1.7695
                  CHANNELS 3 Zrotation Xrotation Yrotation
                  JOINT lIndex1
                  {
                    OFFSET 4.1246 0.487 4.1451
                    CHANNELS 3 Zrotation Xrotation Yrotation
                    JOINT lIndex2
                    {
                      OFFSET 3.4052 -1.454 2.7682
                      CHANNELS 3 Zrotation Xrotation Yrotation
                      JOINT lIndex2_End
                      {
                        OFFSET 1.4531 -1.795 1.2713
                        CHANNELS 3 Zrotation Xrotation Yrotation
                        End Site
                        {
                          OFFSET 0.0145 -0.0179 0.0127
                        }
                      }
                    }
                  }
                  JOINT lMid1
                  {
                    OFFSET 5.6954 0.21 2.1184
                    CHANNELS 3 Zrotation Xrotation Yrotation
                    JOINT lMid2
                    {
                      OFFSET 3.9766 -1.54 2.3863
                      CHANNELS 3 Zrotation Xrotation Yrotation
                      JOINT lMid2_End
                      {
                        OFFSET 1.4042 -1.926 1.125
                        CHANNELS 3 Zrotation Xrotation Yrotation
                        End Site
                        {
                          OFFSET 0.014 -0.0193 0.0113
                        }
                      }
                    }
                  }
                }
                JOINT lCarpal2
                {
                  OFFSET 2.0956 0.66 -0.3894
                  CHANNELS 3 Zrotation Xrotation Yrotation
                  JOINT lRing1
                  {
                    OFFSET 5.0395 -0.09 2.4971
                    CHANNELS 3 Zrotation Xrotation Yrotation
                    JOINT lRing2
                    {
                      OFFSET 3.7921 -1.552 1.4806
                      CHANNELS 3 Zrotation Xrotation Yrotation
                      JOINT lRing2_End
                      {
                        OFFSET 1.4655 -1.808 0.9609
                        CHANNELS 3 Zrotation Xrotation Yrotation
                        End Site
                        {
                          OFFSET 0.0147 -0.0181 0.0096
                        }
                      }
                    }
                  }
                  JOINT lPinky1
                  {
                    OFFSET 4.9141 -1.269 0.3591
                    CHANNELS 3 Zrotation Xrotation Yrotation
                    JOINT lPinky2
                    {
                      OFFSET 3.1477 -1.685 0.8462
                      CHANNELS 3 Zrotation Xrotation Yrotation
                      JOINT lPinky2_End
                      {
                        OFFSET 0.8055 -1.585 0.7955
                        CHANNELS 3 Zrotation Xrotation Yrotation
                        End Site
                        {
                          OFFSET 0.0081 -0.0158 0.008
                        }
                      }
                    }
                  }
                }
              }
            }
          }
        }
        JOINT rCollar
        {
          OFFSET -1.7069 20.075 5.0056
          CHANNELS 3 Zrotation Xrotation Yrotation
          JOINT rShldr
          {
            OFFSET -13.6458 -0.047 -4.849
            CHANNELS 3 Zrotation Xrotation Yrotation
            JOINT rForeArm
            {
              OFFSET -28.3255 -0.9759 2.2888
              CHANNELS 3 Zrotation Xrotation Yrotation
              JOINT rHand
              {
                OFFSET -22.1583 -0.53 10.8316
                CHANNELS 3 Zrotation Xrotation Yrotation
                JOINT rThumb1
                {
                  OFFSET -0.786 0.112 2.5817
                  CHANNELS 3 Zrotation Xrotation Yrotation
                  JOINT rThumb2
                  {
                    OFFSET -0.3601 -0.878 4.2331
                    CHANNELS 3 Zrotation Xrotation Yrotation
                    JOINT rThumb2_End
                    {
                      OFFSET -1.8127 -1.216 2.2227
                      CHANNELS 3 Zrotation Xrotation Yrotation
                      End Site
                      {
                        OFFSET -0.0181 -0.0122 0.0222
                      }
                    }
                  }
                }
                JOINT rCarpal1
                {
                  OFFSET -0.9571 1.114 1.7695
                  CHANNELS 3 Zrotation Xrotation Yrotation
                  JOINT rIndex1
                  {
                    OFFSET -4.1246 0.487 4.1451
                    CHANNELS 3 Zrotation Xrotation Yrotation
                    JOINT rIndex2
                    {
                      OFFSET -3.4052 -1.454 2.7682
                      CHANNELS 3 Zrotation Xrotation Yrotation
                      JOINT rIndex2_End
                      {
                        OFFSET -1.4531 -1.795 1.2713
                        CHANNELS 3 Zrotation Xrotation Yrotation
                        End Site
                        {
                          OFFSET -0.0145 -0.018 0.0127
                        }
                      }
                    }
                  }
                  JOINT rMid1
                  {
                    OFFSET -5.6954 0.21 2.1184
                    CHANNELS 3 Zrotation Xrotation Yrotation
                    JOINT rMid2
                    {
                      OFFSET -3.9766 -1.54 2.3863
                      CHANNELS 3 Zrotation Xrotation Yrotation
                      JOINT rMid2_End
                      {
                        OFFSET -1.4042 -1.926 1.125
                        CHANNELS 3 Zrotation Xrotation Yrotation
                        End Site
                        {
                          OFFSET -0.014 -0.0193 0.0113
                        }
                      }
                    }
                  }
                }
                JOINT rCarpal2
                {
                  OFFSET -2.0956 0.66 -0.3894
                  CHANNELS 3 Zrotation Xrotation Yrotation
                  JOINT rRing1
                  {
                    OFFSET -5.0395 -0.09 2.4971
                    CHANNELS 3 Zrotation Xrotation Yrotation
                    JOINT rRing2
                    {
                      OFFSET -3.7921 -1.552 1.4806
                      CHANNELS 3 Zrotation Xrotation Yrotation
                      JOINT rRing2_End
                      {
                        OFFSET -1.4655 -1.808 0.9609
                        CHANNELS 3 Zrotation Xrotation Yrotation
                        End Site
                        {
                          OFFSET -0.0147 -0.0181 0.0096
                        }
                      }
                    }
                  }
                  JOINT rPinky1
                  {
                    OFFSET -4.9141 -1.269 0.3592
                    CHANNELS 3 Zrotation Xrotation Yrotation
                    JOINT rPinky2
                    {
                      OFFSET -3.1477 -1.685 0.8462
                      CHANNELS 3 Zrotation Xrotation Yrotation
                      JOINT rPinky2_End
                      {
                        OFFSET -0.8055 -1.585 0.7955
                        CHANNELS 3 Zrotation Xrotation Yrotation
                        End Site
                        {
                          OFFSET -0.0081 -0.0158 0.008
                        }
                      }
                    }
                  }
                }
              }
            }
          }
        }
      }
    }
  }
  JOINT lThigh
  {
    OFFSET 8.367 -8.2066 0.5982
    CHANNELS 3 Zrotation Xrotation Yrotation
    JOINT lShin
    {
      OFFSET 2.1923 -43.463 -0.4932
      CHANNELS 3 Zrotation Xrotation Yrotation
      JOINT lFoot
      {
        OFFSET 0.7333 -45.8593 -2.6451
        CHANNELS 3 Zrotation Xrotation Yrotation
        End Site
        {
          OFFSET 2.6618 -4.2699 12.3931
        }
      }
    }
  }
  JOINT rThigh
  {
    OFFSET -8.367 -8.2066 0.5982
    CHANNELS 3 Zrotation Xrotation Yrotation
    JOINT rShin
    {
      OFFSET -2.1923 -43.463 -0.4931
      CHANNELS 3 Zrotation Xrotation Yrotation
      JOINT rFoot
      {
        OFFSET -0.7333 -45.8593 -2.6451
        CHANNELS 3 Zrotation Xrotation Yrotation
        End Site
        {
          OFFSET -2.6618 -4.2699 12.3931
        }
      }
    }
  }
}
MOTION
Frames:	5
Frame Time:	0.0333333
0 91.7903 2.51682 0 0 -0 0 0 -0 0 0 -0 0 0 -0 -1.59103e-010 1.37475e-022 0.00599323 8.76151e-027 3.20403e-030 -0 -0 0 0.00599323 1.66051 0.0835086 5.75766 -0.0175112 0.895433 15.7816 -4.96962e-017 5.96354e-016 9.54166e-015 -9.93923e-017 3.97569e-016 6.36111e-015 -3.31043e-032 5.96354e-016 3.18055e-015 -4.96962e-017 1.98785e-016 -0 -9.93923e-017 1.98785e-016 6.36111e-015 -4.96962e-017 1.98785e-016 9.54166e-015 -9.93923e-017 5.96354e-016 -0 -4.96962e-017 1.98785e-016 3.18055e-015 -4.96962e-017 1.98785e-016 9.54166e-015 -9.93923e-017 5.96354e-016 -0 -4.96962e-017 1.98785e-016 3.18055e-015 -9.93923e-017 1.98785e-016 6.36111e-015 -4.96962e-017 1.98785e-016 9.54166e-015 -9.93923e-017 5.96354e-016 -0 -4.96962e-017 1.98785e-016 3.18055e-015 -4.96962e-017 1.98785e-016 9.54166e-015 -9.93923e-017 5.96354e-016 -0 -4.96962e-017 1.98785e-016 3.18055e-015 -0 0 0.00599323 -1.4496 0.0636048 -5.0245 -1.74811 1.20616 -16.8394 -1.2921e-015 3.97569e-016 -9.54166e-015 -4.96962e-016 0 -9.54166e-015 -2.98177e-016 5.96354e-016 -9.54166e-015 -1.98785e-016 3.97569e-016 -3.18055e-015 -1.98785e-016 0 -6.36111e-015 -8.94531e-016 5.96354e-016 -6.36111e-015 -3.97569e-016 7.95139e-016 -1.27222e-014 4.41391e-032 1.98785e-016 -1.27222e-014 -8.94531e-016 5.96354e-016 -6.36111e-015 -3.97569e-016 7.95139e-016 -1.27222e-014 4.41391e-032 1.98785e-016 -1.27222e-014 -1.98785e-016 0 -6.36111e-015 -8.94531e-016 5.96354e-016 -6.36111e-015 -3.97569e-016 7.95139e-016 -1.27222e-014 4.41391e-032 1.98785e-016 -1.27222e-014 -8.94531e-016 5.96354e-016 -6.36111e-015 -3.97569e-016 7.95139e-016 -1.27222e-014 4.41391e-032 1.98785e-016 -1.27222e-014 -4.66111 -0.998717 0.12318 0.00986924 1.54847 0.176523 4.65186 -0.572283 -0.254274 4.66111 -0.998765 -0.123176 -0.00986867 1.54869 -0.176537 -4.65186 -0.572453 0.25427 
44.9552 37.7954 59.3874 0 68.1914 -0 -0.439443 11.3434 -0.0112067 -0.904044 22.6865 0.0705645 -0.904043 22.6865 0.0705639 -2.75123e-006 -0.466666 -8.37453e-007 -0.0148364 -0.469087 -0.00474205 -14.928 -3.74332 4.52887 36.8702 -28.082 -67.6968 2.86012 -10.8562 0.866739 62.0411 -18.6424 12.4442 -3.18055e-015 7.95139e-016 1.59028e-015 -7.3353e-007 1.08331e-006 -3.31874e-006 -2.37159e-007 5.46054e-008 -9.29122e-007 0 0 -0 -3.18055e-015 1.43125e-014 6.36111e-015 -7.3353e-007 1.08331e-006 -3.31874e-006 -2.37159e-007 5.46054e-008 -9.29122e-007 -3.18055e-015 1.43125e-014 6.36111e-015 -7.3353e-007 1.08331e-006 -3.31874e-006 -2.37159e-007 5.46054e-008 -9.29122e-007 0 0 -0 -3.18055e-015 1.43125e-014 6.36111e-015 -7.3353e-007 1.08331e-006 -3.31874e-006 -2.37159e-007 5.46054e-008 -9.29122e-007 -3.18055e-015 1.43125e-014 6.36111e-015 -7.3353e-007 1.08331e-006 -3.31874e-006 -2.37159e-007 5.46054e-008 -9.29122e-007 14.9011 -3.73844 -4.49384 -36.7856 -27.8743 68.4367 -4.83758 -10.9164 -2.27528 -62.0294 -18.6912 -13.0152 3.18055e-015 3.97569e-016 -1.59028e-015 1.10348e-032 3.97569e-016 -1.59028e-015 -3.18055e-015 1.19271e-015 -7.95139e-016 3.18055e-015 -3.97569e-016 -0 3.18055e-015 -9.93923e-015 3.97569e-015 -3.18055e-015 7.95139e-016 -1.59028e-015 3.18055e-015 3.97569e-016 -3.18055e-015 3.18055e-015 -9.93923e-015 3.97569e-015 -3.18055e-015 7.95139e-016 -1.59028e-015 3.18055e-015 3.97569e-016 -3.18055e-015 3.18055e-015 -3.97569e-016 -0 3.18055e-015 -9.93923e-015 3.97569e-015 -3.18055e-015 7.95139e-016 -1.59028e-015 3.18055e-015 3.97569e-016 -3.18055e-015 3.18055e-015 -9.93923e-015 3.97569e-015 -3.18055e-015 7.95139e-016 -1.59028e-015 3.18055e-015 3.97569e-016 -3.18055e-015 21.397 -74.7042 28.7642 158.783 80.4652 -156.54 17.8398 63.0915 -8.19336 -21.5168 -74.6881 -28.9834 -158.157 80.4423 155.947 -17.8593 63.1009 8.17963 
42.3104 41.1406 56.2837 0 64.8852 -0 -0.410187 10.2057 -0.0236552 -0.836457 20.4113 0.0290515 -0.836457 20.4113 0.0290509 -3.53785e-007 -0.723868 -2.0321e-007 -0.0679114 -0.761911 -0.0218404 -14.5632 -2.28976 5.02104 36.4746 -29.9679 -63.9365 2.8521 -10.2208 1.77938 57.7507 -17.8344 10.8286 1.71987e-006 -7.63879e-007 1.53391e-009 -1.07035e-006 1.29905e-006 1.27252e-007 1.71987e-006 -7.63879e-007 1.53391e-009 6.36111e-015 0 3.18055e-015 1.71987e-006 -7.63879e-007 1.53391e-009 -1.07035e-006 1.29905e-006 1.27252e-007 1.71987e-006 -7.63879e-007 1.53391e-009 1.71987e-006 -7.63879e-007 1.53391e-009 -1.07035e-006 1.29905e-006 1.27252e-007 1.71987e-006 -7.63879e-007 1.53391e-009 6.36111e-015 0 3.18055e-015 1.71987e-006 -7.63879e-007 1.53391e-009 -1.07035e-006 1.29905e-006 1.27252e-007 1.71987e-006 -7.63879e-007 1.53391e-009 1.71987e-006 -7.63879e-007 1.53391e-009 -1.07035e-006 1.29905e-006 1.27252e-007 1.71987e-006 -7.63879e-007 1.53391e-009 14.4511 -2.2652 -4.84613 -36.36 -29.7183 64.6246 -4.81884 -10.2561 -3.16775 -57.7445 -17.9381 -11.355 3.18055e-015 -3.37934e-015 2.38542e-015 -2.75869e-032 -1.98785e-015 -7.95139e-016 3.18055e-015 -2.18663e-015 -7.95139e-016 -8.27607e-033 1.98785e-016 2.38542e-015 9.54166e-015 -1.25234e-014 7.95139e-016 -3.18055e-015 -5.96354e-015 -7.95139e-016 3.18055e-015 -4.37326e-015 -1.59028e-015 9.54166e-015 -1.25234e-014 7.95139e-016 -3.18055e-015 -5.96354e-015 -7.95139e-016 3.18055e-015 -4.37326e-015 -1.59028e-015 -8.27607e-033 1.98785e-016 2.38542e-015 9.54166e-015 -1.25234e-014 7.95139e-016 -3.18055e-015 -5.96354e-015 -7.95139e-016 3.18055e-015 -4.37326e-015 -1.59028e-015 9.54166e-015 -1.25234e-014 7.95139e-016 -3.18055e-015 -5.96354e-015 -7.95139e-016 3.18055e-015 -4.37326e-015 -1.59028e-015 15.2394 -71.5974 22.5236 136.67 85.7107 -134.849 16.1607 59.3027 -6.94042 -15.3317 -71.5876 -22.7138 -135.622 85.6537 133.838 -16.1803 59.3114 6.92799 
42.3105 41.1477 56.1447 0 65.5514 -0 -0.408766 9.75752 -0.0301076 -0.830758 19.515 0.0119118 -0.830758 19.515 0.0119111 -3.45577e-006 -0.992874 7.41062e-007 -0.119 -1.06474 -0.0385512 -15.0475 -1.12813 5.74923 36.5438 -30.1714 -64.2785 2.85209 -10.2208 1.77938 57.371 -17.6626 10.5177 7.8473e-007 -6.8386e-008 -1.06537e-005 -1.12244e-006 -1.29278e-006 6.62145e-007 7.8473e-007 -6.83857e-008 -1.06537e-005 0 0 -0 7.8473e-007 -6.8386e-008 -1.06537e-005 -1.12244e-006 -1.29278e-006 6.62145e-007 7.8473e-007 -6.83857e-008 -1.06537e-005 7.8473e-007 -6.8386e-008 -1.06537e-005 -1.12244e-006 -1.29278e-006 6.62145e-007 7.8473e-007 -6.83857e-008 -1.06537e-005 0 0 -0 7.8473e-007 -6.8386e-008 -1.06537e-005 -1.12244e-006 -1.29278e-006 6.62145e-007 7.8473e-007 -6.83857e-008 -1.06537e-005 7.8473e-007 -6.8386e-008 -1.06537e-005 -1.12244e-006 -1.29278e-006 6.62145e-007 7.8473e-007 -6.83857e-008 -1.06537e-005 14.8511 -1.0828 -5.43839 -36.4182 -29.8798 64.9072 -4.81885 -10.2561 -3.16773 -57.3732 -17.8042 -11.0329 1.1278e-006 2.18765e-006 3.71393e-006 -2.37989e-006 -1.53379e-007 -1.56598e-007 1.25209e-006 -2.03427e-006 -3.55733e-006 0 0 -2.38542e-015 1.1278e-006 2.18765e-006 3.71393e-006 -2.37989e-006 -1.53379e-007 -1.56598e-007 1.25209e-006 -2.03427e-006 -3.55733e-006 1.1278e-006 2.18765e-006 3.71393e-006 -2.37989e-006 -1.53379e-007 -1.56598e-007 1.25209e-006 -2.03427e-006 -3.55733e-006 0 0 -2.38542e-015 1.1278e-006 2.18765e-006 3.71393e-006 -2.37989e-006 -1.53379e-007 -1.56598e-007 1.25209e-006 -2.03427e-006 -3.55733e-006 1.1278e-006 2.18765e-006 3.71393e-006 -2.37989e-006 -1.53379e-007 -1.56598e-007 1.25209e-006 -2.03427e-006 -3.55733e-006 15.9391 -72.508 23.2304 136.679 85.71 -134.859 16.1613 59.3014 -6.94014 -16.0389 -72.4939 -23.4299 -135.612 85.6544 133.827 -16.1809 59.3103 6.92777 
42.3105 41.1547 56.0049 0 66.2177 -0 -0.407267 9.3066 -0.0365357 -0.825121 18.6132 -0.00508287 -0.825121 18.6132 -0.00508253 3.85553e-006 -1.26275 -2.65766e-006 -0.170223 -1.36778 -0.0555473 -15.5471 0.0285789 6.48794 36.6117 -30.3753 -64.621 2.85208 -10.2208 1.77935 56.9925 -17.4887 10.2082 1.06905e-006 -1.2994e-006 -1.23084e-007 -1.06905e-006 1.2994e-006 1.23084e-007 1.06905e-006 -1.2994e-006 -1.23084e-007 0 3.97569e-016 -0 1.06905e-006 -1.2994e-006 -1.23084e-007 -1.06905e-006 1.2994e-006 1.23084e-007 1.06905e-006 -1.2994e-006 -1.23084e-007 1.06905e-006 -1.2994e-006 -1.23084e-007 -1.06905e-006 1.2994e-006 1.23084e-007 1.06905e-006 -1.2994e-006 -1.23084e-007 0 3.97569e-016 -0 1.06905e-006 -1.2994e-006 -1.23084e-007 -1.06905e-006 1.2994e-006 1.23084e-007 1.06905e-006 -1.2994e-006 -1.23084e-007 1.06905e-006 -1.2994e-006 -1.23084e-007 -1.06905e-006 1.2994e-006 1.23084e-007 1.06905e-006 -1.2994e-006 -1.23084e-007 15.2636 0.0966342 -6.03944 -36.4756 -30.0416 65.19 -4.81884 -10.2561 -3.16773 -57.003 -17.6683 -10.712 -1.44754e-006 -1.10665e-006 5.87299e-006 -3.18055e-015 2.5842e-015 1.59028e-015 1.44754e-006 1.10665e-006 -5.87299e-006 2.75869e-032 -1.98785e-015 7.95139e-016 -1.44754e-006 -1.10665e-006 5.87299e-006 -3.18055e-015 2.78299e-015 7.95139e-016 1.44754e-006 1.10665e-006 -5.87299e-006 -1.44754e-006 -1.10665e-006 5.87299e-006 -3.18055e-015 2.78299e-015 7.95139e-016 1.44754e-006 1.10665e-006 -5.87299e-006 2.75869e-032 -1.98785e-015 7.95139e-016 -1.44754e-006 -1.10665e-006 5.87299e-006 -3.18055e-015 2.78299e-015 7.95139e-016 1.44754e-006 1.10665e-006 -5.87299e-006 -1.44754e-006 -1.10665e-006 5.87299e-006 -3.18055e-015 2.78299e-015 7.95139e-016 1.44754e-006 1.10665e-006 -5.87299e-006 16.7002 -73.4119 23.9996 136.638 85.713 -134.815 16.1617 59.3001 -6.93982 -16.8144 -73.395 -24.2147 -135.57 85.6574 133.783 -16.1814 59.3092 6.9275 
